<svg width="25" height="24" viewBox="0 0 25 24" fill="none" xmlns="http://www.w3.org/2000/svg">
<path d="M12.4331 2C6.9221 2 2.43311 6.489 2.43311 12C2.43311 17.511 6.9221 22 12.4331 22C17.9441 22 22.4331 17.511 22.4331 12C22.4331 6.489 17.9441 2 12.4331 2ZM12.4331 4C16.8632 4 20.4331 7.56988 20.4331 12C20.4331 16.0145 17.4984 19.313 13.6519 19.8984V14.3848H15.98L16.3452 12.0195H13.6519V10.7266C13.6519 9.74356 13.9721 8.87109 14.8921 8.87109H16.3687V6.80664C16.1087 6.77164 15.5599 6.69531 14.5229 6.69531C12.3569 6.69531 11.0874 7.83931 11.0874 10.4453V12.0195H8.86084V14.3848H11.0874V19.8789C7.3034 19.2408 4.43311 15.9702 4.43311 12C4.43311 7.56988 8.00298 4 12.4331 4Z" fill="black"/>
</svg>
