<svg width="147" height="30" viewBox="0 0 147 30" fill="none" xmlns="http://www.w3.org/2000/svg">
<path d="M39.582 14.66C30.8933 18.9542 22.0226 29.32 14.1872 29.32C6.35185 29.32 0 22.7565 0 14.66C0 6.56351 6.35185 0 14.1872 0C22.0226 0 30.4106 9.97587 39.582 14.66Z" fill="#1CBFA2"/>
<path d="M37.9857 23.456C36.1258 23.456 34.4498 23.0831 32.9576 22.3372C31.487 21.57 30.33 20.5152 29.4866 19.1726C28.6648 17.8301 28.2539 16.3064 28.2539 14.6016C28.2539 12.8967 28.6648 11.3731 29.4866 10.0305C30.33 8.68796 31.487 7.64375 32.9576 6.89789C34.4498 6.13072 36.1258 5.74714 37.9857 5.74714C39.8239 5.74714 41.4242 6.13072 42.7867 6.89789C44.1708 7.64375 45.1764 8.71992 45.8035 10.1264L41.8784 12.2042C40.9701 10.6272 39.6617 9.83872 37.9532 9.83872C36.634 9.83872 35.5419 10.2649 34.6769 11.1173C33.8118 11.9697 33.3793 13.1312 33.3793 14.6016C33.3793 16.072 33.8118 17.2334 34.6769 18.0858C35.5419 18.9382 36.634 19.3644 37.9532 19.3644C39.6833 19.3644 40.9917 18.5759 41.8784 16.999L45.8035 19.1087C45.1764 20.4726 44.1708 21.5381 42.7867 22.3052C41.4242 23.0724 39.8239 23.456 37.9857 23.456Z" fill="black"/>
<path d="M57.4426 5.74714C60.1459 5.74714 62.222 6.38645 63.671 7.66507C65.1199 8.92237 65.8444 10.8296 65.8444 13.3869V23.2003H61.1083V21.0586C60.1567 22.6569 58.3834 23.456 55.7882 23.456C54.4474 23.456 53.2796 23.2322 52.2848 22.7847C51.3116 22.3372 50.5655 21.7192 50.0465 20.9307C49.5275 20.1422 49.2679 19.2472 49.2679 18.2456C49.2679 16.6474 49.8735 15.39 51.0845 14.4737C52.3172 13.5574 54.2095 13.0992 56.7614 13.0992H60.7839C60.7839 12.0124 60.4487 11.1813 59.7783 10.6059C59.1078 10.0092 58.1022 9.71085 56.7614 9.71085C55.8315 9.71085 54.9124 9.86003 54.0041 10.1584C53.1174 10.4354 52.3605 10.819 51.7333 11.3091L49.9167 7.82489C50.8683 7.16427 52.0037 6.65283 53.3229 6.29055C54.6637 5.92828 56.0369 5.74714 57.4426 5.74714ZM57.0534 20.0996C57.9184 20.0996 58.6861 19.9078 59.3565 19.5242C60.027 19.1194 60.5027 18.5333 60.7839 17.7661V16.008H57.3129C55.2368 16.008 54.1987 16.6793 54.1987 18.0219C54.1987 18.6612 54.4474 19.1726 54.9448 19.5562C55.4638 19.9185 56.1667 20.0996 57.0534 20.0996Z" fill="black"/>
<path d="M80.6706 23.456C78.8108 23.456 77.1348 23.0831 75.6426 22.3372C74.172 21.57 73.015 20.5152 72.1716 19.1726C71.3498 17.8301 70.9389 16.3064 70.9389 14.6016C70.9389 12.8967 71.3498 11.3731 72.1716 10.0305C73.015 8.68796 74.172 7.64375 75.6426 6.89789C77.1348 6.13072 78.8108 5.74714 80.6706 5.74714C82.5089 5.74714 84.1092 6.13072 85.4717 6.89789C86.8557 7.64375 87.8613 8.71992 88.4885 10.1264L84.5634 12.2042C83.6551 10.6272 82.3467 9.83872 80.6382 9.83872C79.319 9.83872 78.2269 10.2649 77.3618 11.1173C76.4968 11.9697 76.0643 13.1312 76.0643 14.6016C76.0643 16.072 76.4968 17.2334 77.3618 18.0858C78.2269 18.9382 79.319 19.3644 80.6382 19.3644C82.3683 19.3644 83.6767 18.5759 84.5634 16.999L88.4885 19.1087C87.8613 20.4726 86.8557 21.5381 85.4717 22.3052C84.1092 23.0724 82.5089 23.456 80.6706 23.456Z" fill="black"/>
<path d="M104.534 22.3692C104.037 22.7314 103.42 23.0085 102.685 23.2003C101.971 23.3708 101.214 23.456 100.414 23.456C98.3381 23.456 96.727 22.9339 95.5808 21.8897C94.4562 20.8455 93.894 19.3111 93.894 17.2867V10.2223H91.2015V6.38645H93.894V2.19897H98.9545V6.38645H103.301V10.2223H98.9545V17.2227C98.9545 17.9473 99.1383 18.512 99.5059 18.9169C99.8952 19.3005 100.436 19.4923 101.128 19.4923C101.928 19.4923 102.609 19.2792 103.172 18.853L104.534 22.3692Z" fill="black"/>
<path d="M126.579 6.00286V23.2003H121.778V21.1545C121.107 21.9003 120.307 22.4757 119.377 22.8806C118.447 23.2642 117.442 23.456 116.36 23.456C114.068 23.456 112.251 22.806 110.911 21.5061C109.57 20.2062 108.899 18.2776 108.899 15.7204V6.00286H113.96V14.9852C113.96 17.7555 115.139 19.1407 117.496 19.1407C118.707 19.1407 119.68 18.7571 120.415 17.9899C121.151 17.2014 121.518 16.04 121.518 14.5057V6.00286H126.579Z" fill="black"/>
<path d="M138.76 23.456C137.312 23.456 135.895 23.2855 134.511 22.9445C133.127 22.5823 132.024 22.1348 131.202 21.602L132.889 18.0219C133.667 18.512 134.608 18.9169 135.711 19.2366C136.814 19.5349 137.895 19.6841 138.955 19.6841C141.096 19.6841 142.167 19.162 142.167 18.1178C142.167 17.6276 141.875 17.276 141.291 17.0629C140.707 16.8498 139.809 16.6687 138.598 16.5195C137.171 16.3064 135.992 16.0613 135.062 15.7843C134.132 15.5073 133.321 15.0171 132.629 14.3139C131.959 13.6106 131.624 12.6091 131.624 11.3091C131.624 10.2223 131.937 9.26334 132.565 8.43224C133.213 7.57982 134.143 6.9192 135.354 6.45038C136.587 5.98155 138.036 5.74714 139.701 5.74714C140.934 5.74714 142.156 5.88566 143.367 6.16269C144.6 6.41841 145.616 6.78069 146.416 7.24952L144.729 10.7977C143.194 9.94527 141.518 9.51906 139.701 9.51906C138.62 9.51906 137.809 9.66823 137.268 9.96658C136.728 10.2649 136.457 10.6485 136.457 11.1173C136.457 11.6501 136.749 12.023 137.333 12.2361C137.917 12.4492 138.847 12.6517 140.123 12.8435C141.55 13.0779 142.718 13.3336 143.626 13.6106C144.535 13.8664 145.324 14.3458 145.994 15.0491C146.665 15.7523 147 16.7326 147 17.9899C147 19.0554 146.676 20.0037 146.027 20.8348C145.378 21.6659 144.427 22.3159 143.172 22.7847C141.94 23.2322 140.469 23.456 138.76 23.456Z" fill="black"/>
</svg>
